<svg width="32" height="32" viewBox="0 0 32 32" xmlns="http://www.w3.org/2000/svg">
  <defs>
    <linearGradient id="piece-fill" x1="0" y1="0" x2="0" y2="1">
      <stop offset="0%" stop-color="#f5f3ff"/>
      <stop offset="100%" stop-color="#ddd6fe"/>
    </linearGradient>
    <filter id="shadow">
      <feDropShadow dx="0" dy="1" stdDeviation="1" flood-color="#4c1d95" flood-opacity="0.8"/>
    </filter>
  </defs>
  <g filter="url(#shadow)" fill="url(#piece-fill)" stroke="#7c3aed" stroke-width="0.8" stroke-linejoin="round" stroke-linecap="round">
    <!-- Base -->
    <rect x="5" y="27" width="22" height="3.5" rx="1.75"/>
    <!-- Stem -->
    <rect x="8" y="23.5" width="16" height="4" rx="1"/>
    <!-- Body -->
    <path d="M6.5 17 Q6 23.5 8 23.5 L24 23.5 Q26 23.5 25.5 17 Q25 12 16 11 Q7 12 6.5 17Z"/>
    <!-- Neck -->
    <rect x="10" y="14" width="12" height="5" rx="1"/>
    <!-- Crown base -->
    <rect x="8" y="10" width="16" height="5" rx="1.2"/>
    <!-- Crown points -->
    <polygon points="8,10 9.5,4 12.5,8 16,2 19.5,8 22.5,4 24,10"/>
    <!-- Cross -->
    <rect x="14.5" y="0.5" width="3" height="1.2" rx="0.6"/>
    <rect x="15.3" y="0" width="1.4" height="3" rx="0.7"/>
  </g>
  <path d="M12 16.5 Q16 15 20 16.5" fill="none" stroke="#c4b5fd" stroke-width="0.5" stroke-linecap="round" opacity="0.6"/>
</svg>
